/* XPM */
static char *wall[] = {
/* columns rows colors chars-per-pixel */
"64 64 2 1 ",
"  c DarkGreen",
". c None",
/* pixels */
"................................................................",
"................................................................",
"................................................................",
"................................................................",
"................................................................",
"................................................................",
"................................................................",
"................................................................",
"............                                        ............",
"..........                                            ..........",
".........                                              .........",
".........                                               ........",
"........                                                ........",
"........                                                 .......",
"........                                                  ......",
"........                                                   .....",
"........                                                        ",
"........                                                        ",
"........                                                        ",
"........                                                        ",
"........                                                        ",
"........                                                        ",
"........                                                        ",
"........                                                        ",
"........                                                        ",
"........                                                        ",
"........                                                        ",
"........                                                        ",
"........                                                        ",
"........                                                        ",
"........                                                        ",
"........                                                        ",
"........                                                        ",
"........                                                        ",
"........                                                        ",
"........                                                        ",
"........                                                        ",
"........                                                        ",
"........                                                        ",
"........                                                        ",
"........                                                        ",
"........                                                        ",
"........                                                        ",
"........                                                        ",
"........                                                        ",
"........                                                        ",
"........                                                        ",
"........                                                        ",
"........                                                        ",
"........                                                        ",
"........                                                        ",
"........                                                        ",
".........                                                       ",
".........                                                       ",
"..........                                                      ",
"............                                                    ",
"................................................................",
"................................................................",
"................................................................",
"................................................................",
"................................................................",
"................................................................",
"................................................................",
"................................................................"
};
